<svg xmlns="http://www.w3.org/2000/svg" width="1024" height="1024" viewBox="0 0 1024 1024">
<g>
<path d="M 447.70 967.50 C442.33,971.26 433.64,967.92 432.46,961.65 C431.10,954.40 439.72,938.27 450.98,926.96 C454.33,923.60 460.83,918.93 467.50,915.10 C490.08,902.11 492.64,900.42 498.58,894.53 C502.92,890.23 505.86,886.06 508.83,880.00 C515.04,867.31 516.46,860.80 516.35,845.50 C516.25,831.47 515.24,825.64 509.48,805.70 C501.62,778.53 499.83,752.20 504.39,730.75 C512.32,693.50 533.93,655.17 566.86,619.99 C593.69,591.32 626.24,571.00 667.00,557.49 C671.67,555.94 675.87,554.36 676.32,553.97 C676.77,553.58 675.12,549.04 672.65,543.88 C664.23,526.28 661.47,511.37 663.00,491.74 C664.07,478.00 666.51,468.09 671.48,457.34 C683.22,431.92 708.11,410.73 735.50,402.82 C742.60,400.77 745.57,400.51 762.00,400.55 C779.30,400.59 781.08,400.77 789.50,403.36 C810.77,409.89 830.77,424.64 842.69,442.59 C844.67,445.56 846.71,448.00 847.24,448.00 C850.22,448.00 865.79,434.34 871.74,426.50 C883.13,411.49 889.45,386.51 886.99,366.17 C884.32,344.13 877.63,329.67 863.50,315.43 C850.79,302.62 835.00,293.67 835.00,299.27 C835.00,302.06 826.70,317.61 820.97,325.54 C809.56,341.35 794.85,352.90 772.56,363.56 C753.84,372.52 737.60,376.57 715.84,377.69 L 704.18 378.30 L 702.96 382.90 C700.72,391.37 690.37,411.40 684.27,419.08 C669.65,437.46 663.57,442.77 634.00,462.99 C623.28,470.32 612.03,478.23 609.00,480.57 C592.73,493.13 579.64,512.88 569.06,540.84 C564.18,553.75 561.86,561.70 554.47,591.00 C549.78,609.55 543.24,629.49 538.06,640.99 C535.82,645.97 528.72,659.14 522.28,670.27 C504.60,700.81 499.20,712.99 495.59,730.50 C491.06,752.42 491.53,767.12 497.67,796.30 C505.58,833.89 502.39,856.76 486.29,877.81 C483.21,881.84 477.50,887.62 473.60,890.67 C461.13,900.44 451.80,904.18 423.00,911.02 C393.31,918.06 379.18,926.62 369.50,943.45 C367.07,947.68 364.26,951.13 362.33,952.25 C359.39,953.96 358.89,953.98 355.43,952.54 C353.38,951.68 351.11,950.20 350.38,949.24 C346.38,943.96 352.24,931.19 364.40,918.68 C376.80,905.94 388.43,900.64 422.66,892.14 C461.01,882.63 474.34,871.88 481.11,845.05 C483.89,834.04 483.35,822.28 479.06,800.50 C474.33,776.51 473.43,764.93 474.84,746.21 C477.09,716.50 483.08,699.49 504.16,663.00 C522.26,631.65 528.98,615.04 535.99,584.38 C545.69,541.92 554.88,517.67 570.39,493.62 C578.32,481.33 580.94,475.78 582.66,467.63 C585.04,456.37 583.22,444.61 577.24,432.50 C573.17,424.26 563.17,407.22 561.97,406.48 C561.51,406.20 556.94,408.50 551.82,411.61 C521.76,429.81 506.34,445.20 498.35,464.98 C490.03,485.59 488.40,513.26 494.37,532.60 C497.13,541.51 502.79,562.37 504.66,570.50 C507.21,581.58 507.21,607.25 504.65,618.27 C502.02,629.63 497.05,643.69 490.26,659.00 C480.05,682.00 474.88,695.81 472.94,705.31 C471.05,714.53 468.92,734.94 466.97,762.50 C464.67,795.02 458.58,821.56 449.41,838.97 C447.53,842.52 446.00,845.88 446.00,846.41 C446.00,848.42 453.29,840.29 456.67,834.50 C461.62,826.05 463.75,824.00 467.59,824.00 C472.21,824.00 473.87,824.85 475.54,828.07 C477.64,832.13 477.41,833.71 473.57,841.72 C468.96,851.33 457.90,862.90 447.30,869.20 C434.10,877.05 416.41,883.24 395.00,887.52 C357.68,894.97 336.05,903.76 321.06,917.57 C316.65,921.63 311.89,925.24 310.50,925.59 C307.42,926.36 302.28,924.39 300.96,921.93 C299.57,919.33 299.78,914.32 301.41,911.17 C304.00,906.16 314.61,897.28 326.33,890.31 L 330.50 887.83 L 322.76 888.40 C296.51,890.33 272.08,900.88 256.50,916.99 C247.65,926.14 240.95,927.57 236.06,921.35 C231.64,915.74 234.15,910.53 246.44,899.76 C257.30,890.23 270.57,883.02 287.36,877.49 C306.82,871.09 322.12,868.61 358.50,865.98 C386.79,863.93 400.42,860.33 413.00,851.58 C432.51,838.00 441.68,815.59 447.00,768.50 C452.75,717.54 453.84,680.42 450.10,662.35 C444.38,634.67 427.74,609.50 405.80,595.30 C395.04,588.34 379.88,581.52 364.00,576.49 C342.54,569.70 325.95,563.28 318.31,558.82 C314.23,556.43 310.73,555.04 309.52,555.33 C308.41,555.59 303.82,557.44 299.31,559.44 C285.19,565.72 273.51,568.24 258.50,568.23 C215.50,568.22 178.26,544.14 165.68,508.19 C163.07,500.72 162.58,497.70 162.20,486.70 C161.81,475.36 162.39,468.89 164.64,459.42 C165.04,457.72 163.51,456.15 156.51,451.07 C145.07,442.75 136.15,432.16 129.90,419.50 C122.57,404.62 120.69,396.46 120.69,379.50 C120.69,362.82 122.58,354.45 129.49,340.50 C140.62,318.05 156.13,304.89 182.00,295.98 L 192.50 292.36 L 192.16 288.93 C191.97,287.04 191.36,285.33 190.80,285.13 C188.08,284.14 179.31,275.96 176.35,271.66 C172.25,265.69 169.00,255.50 169.00,248.60 C169.00,232.55 179.14,216.17 192.96,209.92 C197.68,207.79 198.95,206.05 198.99,201.69 C199.01,198.23 205.15,187.47 209.81,182.70 C215.43,176.95 220.63,173.77 227.93,171.61 C234.00,169.81 247.66,169.47 252.94,170.98 C256.21,171.92 256.59,171.74 261.96,166.62 C265.04,163.68 269.12,160.47 271.03,159.48 C280.38,154.64 296.14,153.54 307.12,156.96 C310.58,158.04 313.46,158.82 313.52,158.71 C313.58,158.59 314.79,153.72 316.20,147.88 C320.87,128.65 329.57,113.31 343.02,100.62 C366.99,78.01 400.97,66.94 442.00,68.38 C466.87,69.25 486.25,73.52 503.50,81.94 L 511.26 85.72 L 518.88 80.22 C534.68,68.80 556.90,60.02 577.50,57.05 C586.72,55.72 606.87,55.73 616.68,57.07 C649.45,61.54 679.61,78.17 695.61,100.60 C704.69,113.33 710.48,128.84 712.73,146.50 L 713.50 152.50 L 721.00 153.27 C749.13,156.16 768.08,162.04 786.99,173.74 C811.08,188.65 827.35,208.10 835.79,232.08 C840.65,245.91 842.57,263.04 840.71,276.01 L 839.92 281.52 L 846.58 284.42 C854.42,287.84 865.61,295.03 872.18,300.88 C877.83,305.91 886.37,317.14 891.28,326.00 C906.79,353.99 906.98,395.51 891.72,424.27 C883.90,439.00 869.62,454.07 857.75,460.13 C854.47,461.80 853.92,462.51 854.47,464.32 C865.01,498.80 859.82,532.65 839.91,559.23 C833.72,567.50 818.57,581.03 810.36,585.62 C788.25,597.98 764.00,601.27 738.48,595.37 L 731.46 593.74 L 724.48 598.03 C712.08,605.66 683.23,620.00 680.28,620.00 C673.13,620.00 670.76,614.39 673.83,604.75 C679.10,588.23 683.10,573.77 682.56,573.22 C681.67,572.34 657.73,582.14 641.50,590.02 C627.75,596.70 614.59,605.48 608.34,612.14 C598.18,622.96 587.26,644.07 583.07,661.00 C579.30,676.18 578.67,684.30 579.31,708.95 C580.03,736.39 582.08,760.85 585.59,784.00 C590.58,816.86 596.10,831.03 609.00,844.10 C613.12,848.27 618.70,852.96 621.38,854.52 C633.19,861.36 651.14,865.55 672.53,866.47 C733.14,869.07 759.96,877.48 787.96,902.65 C793.81,907.92 796.00,911.55 796.00,916.03 C796.00,920.13 791.28,925.00 787.30,925.00 C783.80,925.00 781.39,923.40 772.87,915.45 C758.19,901.75 743.11,894.36 720.90,889.98 C715.37,888.89 708.75,888.00 706.18,888.00 L 701.50 888.01 L 705.56 890.75 C712.82,895.67 723.77,905.00 726.55,908.65 C728.17,910.77 729.47,913.97 729.76,916.53 C730.17,920.20 729.85,921.24 727.67,923.42 C723.42,927.67 718.97,927.01 712.69,921.20 C704.69,913.81 697.98,908.52 692.50,905.29 C684.71,900.71 668.87,894.57 653.09,890.02 C645.17,887.73 635.93,884.83 632.56,883.56 C607.20,874.01 587.94,856.65 577.91,834.29 C570.89,818.66 567.06,799.11 562.08,753.50 C558.60,721.65 558.25,677.63 561.35,662.75 C562.12,659.04 562.43,656.00 562.03,656.00 C561.64,656.00 558.39,660.16 554.82,665.25 C527.18,704.64 516.66,740.80 522.49,776.39 C523.96,785.32 527.70,800.72 533.03,819.74 C535.80,829.64 537.21,839.60 538.50,858.50 C539.73,876.51 545.29,891.57 553.32,898.62 C557.59,902.37 559.82,903.76 578.70,914.50 C590.65,921.29 598.52,929.23 603.82,939.87 C609.37,950.98 609.50,955.48 604.38,959.97 C601.53,962.47 600.19,963.02 598.13,962.51 C593.54,961.38 591.38,959.31 588.56,953.33 C582.65,940.81 575.72,934.60 554.56,922.90 C544.90,917.55 534.22,907.77 529.26,899.74 L 525.58 893.78 L 523.17 896.64 C513.86,907.69 511.14,910.45 504.72,915.34 C500.75,918.37 492.55,923.50 486.50,926.75 C480.44,930.00 473.69,933.82 471.50,935.23 C463.19,940.56 454.60,951.67 451.45,961.14 C450.57,963.81 448.88,966.67 447.70,967.50 ZM 495.35 334.75 C501.39,340.94 506.66,346.00 507.07,346.00 C507.48,346.00 507.63,345.21 507.42,344.25 C503.35,326.31 501.11,303.13 502.76,296.00 C503.47,292.90 504.71,291.82 513.62,286.50 C532.69,275.13 543.17,265.48 551.71,251.42 C561.73,234.91 565.99,218.96 566.00,197.84 C566.01,169.12 554.39,142.16 532.86,120.93 C515.32,103.63 495.06,92.69 468.00,85.92 C456.06,82.93 426.55,82.10 412.31,84.35 C387.44,88.29 366.43,98.48 351.93,113.64 C340.04,126.06 334.21,136.65 330.54,152.47 C328.83,159.86 328.47,173.55 329.96,174.48 C330.49,174.80 333.76,174.58 337.22,173.98 C359.54,170.09 383.80,187.70 385.75,209.20 C386.27,214.96 386.33,215.05 391.89,218.82 C401.99,225.66 409.00,239.43 409.00,252.42 C409.00,260.51 406.07,270.00 401.46,276.80 C399.49,279.72 398.01,282.84 398.19,283.73 C398.64,286.07 410.39,290.67 426.00,294.59 C439.21,297.92 442.71,298.42 460.00,299.48 C463.85,299.72 466.03,299.73 467.84,300.56 C470.62,301.85 472.51,305.06 478.26,314.00 C482.06,319.89 488.55,327.78 495.35,334.75 ZM 632.99 381.86 C631.36,386.34 630.42,390.00 630.91,390.00 C631.89,390.00 641.01,384.95 647.78,380.65 C655.07,376.03 664.27,368.91 669.68,363.69 C671.72,361.73 672.93,360.47 674.40,359.78 C676.93,358.60 680.26,359.12 690.03,360.64 C690.66,360.74 691.32,360.84 692.00,360.95 C709.02,363.59 734.13,361.18 752.65,355.12 C776.20,347.41 799.00,331.34 809.55,315.00 C826.99,287.99 830.15,264.97 820.31,236.54 C815.72,223.26 809.46,213.38 798.98,202.85 C774.89,178.66 742.06,166.76 703.61,168.27 C687.47,168.90 678.18,170.62 663.70,175.64 C644.70,182.22 633.26,189.70 618.39,205.25 C611.17,212.81 608.28,216.76 604.25,224.62 C596.06,240.62 594.50,246.90 594.50,264.00 C594.50,277.82 594.66,278.97 597.87,288.50 C605.22,310.32 613.55,322.35 630.14,335.06 C640.45,342.97 641.00,343.61 641.00,347.70 C641.00,352.92 636.41,372.48 632.99,381.86 ZM 339.00 552.11 C346.42,554.87 349.00,555.49 349.00,554.48 C349.00,554.20 346.96,550.60 344.46,546.49 C338.25,536.25 334.01,526.50 333.83,522.04 C333.72,519.33 334.56,517.05 336.91,513.63 C343.25,504.42 348.00,490.40 348.00,480.91 L 348.00 475.99 L 341.12 476.63 C317.68,478.80 280.71,464.59 262.66,446.46 C250.99,434.74 243.56,421.68 240.96,408.26 C240.23,404.50 239.94,397.73 240.24,391.26 C241.04,373.88 246.25,362.49 260.31,347.44 L 268.11 339.07 L 264.55 337.58 C262.58,336.76 258.62,333.86 255.73,331.13 L 250.48 326.17 L 245.02 327.58 C242.02,328.36 237.52,328.99 235.03,328.99 C222.19,328.95 206.15,320.44 199.91,310.35 C197.37,306.25 196.48,306.31 182.70,311.59 C171.82,315.76 164.36,320.62 156.26,328.80 C137.56,347.71 130.88,376.31 139.04,402.50 C142.32,413.03 147.52,421.34 157.41,431.84 C161.60,436.29 169.13,442.00 170.80,442.00 C171.31,442.00 174.57,438.29 178.04,433.75 C186.79,422.31 195.21,415.11 206.75,409.19 C215.99,404.45 227.59,400.26 228.62,401.29 C228.88,401.55 229.35,404.85 229.66,408.63 L 230.23 415.50 L 221.81 418.33 C194.75,427.44 176.37,454.38 176.67,484.50 C176.99,515.60 198.20,540.09 233.52,550.15 C244.91,553.40 268.73,553.41 280.50,550.18 C287.99,548.12 301.16,542.30 307.14,538.40 C309.73,536.70 309.88,536.74 316.14,540.69 C324.69,546.09 330.07,548.78 339.00,552.11 ZM 281.34 328.97 C293.02,331.31 304.56,326.12 313.37,314.57 C316.59,310.34 317.35,310.30 327.00,313.89 C337.28,317.71 346.87,315.87 354.28,308.65 C359.53,303.54 361.92,298.66 363.03,290.77 C363.50,287.44 364.25,284.39 364.69,283.99 C365.14,283.60 367.75,282.73 370.50,282.07 C377.08,280.49 382.80,277.07 387.43,271.94 C392.75,266.05 394.34,261.76 394.43,253.00 C394.49,246.77 394.04,244.56 391.78,239.97 C388.53,233.34 385.30,230.08 378.06,226.13 L 372.64 223.16 L 372.44 216.29 C372.31,211.78 371.47,207.64 370.00,204.23 C367.50,198.42 360.83,191.68 355.19,189.27 C350.20,187.14 337.71,187.18 332.63,189.35 C326.74,191.86 325.37,191.49 322.50,186.59 C319.05,180.70 312.06,174.40 305.69,171.44 C301.75,169.60 298.79,169.02 293.43,169.01 C282.04,168.99 277.77,170.97 268.35,180.64 C263.87,185.24 259.69,189.00 259.07,189.00 C258.44,189.00 255.71,187.88 253.00,186.50 C249.03,184.49 246.59,184.00 240.49,184.00 C224.33,184.00 214.23,193.55 213.04,209.96 L 212.50 217.42 L 204.55 220.70 C194.49,224.84 190.21,228.30 186.74,235.10 C180.86,246.64 182.40,257.30 191.32,266.75 C194.17,269.77 198.52,273.21 201.00,274.38 L 205.50 276.52 L 206.09 285.01 C207.06,299.14 211.78,306.26 223.82,311.77 C228.46,313.90 230.23,314.18 236.36,313.74 C240.54,313.45 245.36,312.37 248.00,311.14 C250.48,309.99 253.24,309.03 254.15,309.02 C255.05,309.01 257.21,311.22 258.95,313.92 C263.67,321.28 272.47,327.19 281.34,328.97 ZM 694.00 594.05 C694.00,595.12 694.12,596.00 694.27,596.00 C694.42,596.00 702.32,591.95 711.83,587.00 C721.35,582.05 730.23,578.00 731.58,578.00 C732.92,578.00 737.28,578.93 741.26,580.07 C750.50,582.71 767.35,583.67 776.55,582.07 C791.96,579.38 809.40,570.00 820.72,558.30 C832.46,546.16 839.51,532.12 843.09,513.71 C845.42,501.79 845.47,497.09 843.40,484.93 C837.88,452.48 816.63,427.92 785.50,418.00 C775.94,414.95 755.63,414.10 744.99,416.30 C735.03,418.37 723.51,422.89 716.68,427.42 C697.57,440.11 683.98,459.80 679.58,481.21 C677.32,492.24 677.52,509.48 680.04,519.50 C682.70,530.07 689.58,543.87 696.45,552.38 C699.50,556.17 702.00,559.99 701.99,560.88 C701.99,561.77 700.19,569.16 697.99,577.30 C695.80,585.45 694.00,592.98 694.00,594.05 ZM 496.56 422.04 L 498.21 431.02 L 507.86 422.21 C519.01,412.02 522.94,409.12 540.00,398.52 C546.88,394.25 552.62,390.65 552.77,390.52 C552.92,390.39 551.73,387.35 550.12,383.76 C546.29,375.23 544.86,367.99 544.86,357.15 C544.86,342.05 547.31,332.19 553.67,321.73 C558.32,314.06 569.63,302.00 572.16,302.00 C573.57,302.00 575.12,304.17 578.04,310.20 C583.76,322.03 583.55,327.49 576.47,352.00 C572.13,367.05 570.57,374.97 571.73,376.13 C573.20,377.60 580.50,371.16 586.69,362.94 C592.72,354.95 599.18,342.39 601.15,334.84 L 602.37 330.18 L 596.72 321.79 C585.40,304.95 580.16,289.53 579.29,270.50 C578.65,256.52 580.05,244.14 583.38,234.36 C594.94,200.43 624.16,172.71 661.09,160.66 C670.66,157.54 687.61,154.00 692.97,154.00 C695.86,154.00 697.25,153.51 697.70,152.34 C698.63,149.91 694.64,133.40 691.01,124.67 C676.05,88.75 630.50,66.41 583.50,71.96 C570.47,73.49 563.68,75.22 551.50,80.08 C542.05,83.85 527.88,92.32 527.37,94.50 C527.25,95.05 530.44,98.06 534.48,101.18 C546.18,110.25 560.96,128.10 567.57,141.13 C585.00,175.54 586.16,215.88 570.67,249.35 C561.36,269.46 548.74,282.95 525.13,298.01 L 516.75 303.35 L 517.45 312.93 C518.55,328.03 521.52,340.31 527.91,356.17 C529.61,360.38 531.00,365.00 531.00,366.42 C531.00,369.42 527.82,373.00 525.16,373.00 C522.40,373.00 500.63,358.73 491.24,350.77 C484.15,344.76 478.75,338.97 469.09,327.00 L 467.07 324.50 L 467.03 331.29 C466.96,345.74 471.82,362.13 483.06,385.38 C492.48,404.87 494.32,409.87 496.56,422.04 ZM 420.00 475.11 C426.34,477.16 426.99,477.27 427.01,476.25 C427.02,475.84 424.03,469.57 420.37,462.32 C415.75,453.16 413.58,447.66 413.25,444.26 C412.81,439.68 413.04,439.08 416.91,434.60 C427.93,421.87 432.79,411.43 433.69,398.54 C434.36,388.93 432.55,380.72 427.74,371.61 C423.41,363.41 409.58,349.53 400.29,344.06 C391.75,339.03 379.61,334.08 375.72,334.03 L 372.95 334.00 L 374.66 337.25 C376.51,340.75 377.06,350.48 375.70,355.38 C375.00,357.89 375.12,358.16 376.70,357.54 C377.69,357.15 380.75,356.60 383.50,356.32 C387.64,355.90 389.09,356.21 391.90,358.15 C404.14,366.60 399.52,384.98 385.15,385.00 C375.62,385.00 369.57,378.88 369.57,369.22 C369.57,364.30 369.41,363.93 367.54,364.54 C356.80,368.02 350.18,367.24 343.48,361.72 C334.72,354.50 333.48,340.22 341.01,333.21 L 343.23 331.13 L 339.68 330.47 C337.72,330.10 332.32,329.73 327.68,329.65 C319.66,329.51 319.03,329.66 315.36,332.55 C307.43,338.82 300.18,342.07 289.72,344.05 C286.00,344.76 283.34,346.32 277.72,351.12 C269.22,358.38 266.32,361.69 261.96,369.05 C250.66,388.15 251.92,407.38 265.79,427.64 C272.57,437.55 281.07,444.23 296.08,451.46 C318.46,462.23 346.12,464.69 369.50,458.00 C379.19,455.23 381.69,455.44 388.56,459.60 C397.73,465.15 413.90,473.13 420.00,475.11 ZM 467.12 646.25 C468.38,650.51 469.70,654.00 470.06,654.00 C471.03,654.00 479.33,635.68 482.36,626.86 C488.47,609.07 489.56,593.47 485.94,575.72 C481.40,553.45 470.31,531.81 453.03,511.50 C445.35,502.47 440.99,499.53 427.66,494.40 C408.32,486.95 400.45,483.43 389.66,477.41 L 379.57 471.77 L 374.53 473.30 C371.77,474.15 368.04,475.13 366.25,475.50 C363.07,476.14 363.00,476.27 363.00,481.53 C363.00,491.63 359.28,504.89 353.40,515.78 C351.53,519.24 350.00,522.74 350.00,523.56 C350.00,525.90 355.82,536.87 360.70,543.71 C367.23,552.88 373.49,557.31 393.72,567.07 C403.74,571.90 414.99,577.84 418.72,580.27 C441.89,595.31 459.02,618.67 467.12,646.25 ZM 459.65 490.12 C471.67,503.00 471.70,503.00 471.90,492.08 C471.96,489.09 473.63,477.62 475.61,466.58 C478.84,448.63 479.17,445.23 478.73,434.50 C478.29,424.11 477.76,421.16 474.72,412.50 C472.79,407.00 468.43,396.69 465.02,389.59 C454.26,367.13 450.15,350.51 449.44,326.50 L 449.09 314.50 L 446.29 314.23 C428.97,312.57 405.89,305.82 392.21,298.43 C380.36,292.02 376.89,292.57 375.54,301.08 C375.23,303.05 373.40,307.27 371.49,310.45 C369.57,313.64 368.00,316.36 368.00,316.49 C368.00,316.63 369.79,317.03 371.97,317.38 C377.75,318.30 391.45,322.77 398.98,326.19 C422.77,337.00 441.99,358.39 447.37,380.06 C450.43,392.39 449.15,409.67 444.30,421.50 C443.40,423.70 439.77,429.87 436.25,435.21 L 429.83 444.92 L 434.39 454.22 C441.19,468.11 447.60,477.22 459.65,490.12 ZM 676.69 950.83 C673.97,953.38 669.38,953.65 666.24,951.46 C665.03,950.61 662.25,946.86 660.07,943.12 C651.34,928.18 640.02,919.27 619.85,911.47 C583.63,897.48 570.00,886.13 556.20,858.50 C546.94,839.96 542.04,822.96 538.32,796.50 C536.88,786.21 536.53,777.77 536.63,756.00 C536.86,710.04 538.24,701.94 545.99,701.18 C551.21,700.66 553.64,701.72 555.05,705.12 C556.57,708.78 556.58,710.11 555.55,745.00 C554.58,777.89 556.19,795.60 562.55,821.67 C565.84,835.19 572.79,851.70 579.29,861.50 C589.14,876.34 598.56,883.01 624.75,893.65 C647.20,902.77 655.86,907.83 664.04,916.62 C677.33,930.89 682.63,945.24 676.69,950.83 ZM 601.26 451.16 C601.91,456.57 602.58,461.00 602.75,461.00 C602.93,461.00 607.80,457.83 613.58,453.95 C619.36,450.07 626.43,445.52 629.29,443.83 C637.66,438.90 651.99,427.75 659.10,420.64 C667.46,412.28 676.58,399.49 681.78,388.82 C687.94,376.17 687.95,376.00 683.00,376.00 C679.39,376.00 677.77,376.87 670.41,382.75 C665.76,386.46 657.66,392.10 652.41,395.27 C641.38,401.94 620.38,411.05 614.41,411.74 C610.88,412.16 610.04,411.86 608.24,409.58 C605.64,406.27 605.97,405.01 613.22,390.50 C616.24,384.45 619.88,375.90 621.29,371.50 C623.86,363.55 626.48,352.06 625.84,351.61 C625.65,351.48 623.35,349.65 620.72,347.54 C618.10,345.44 615.82,343.89 615.66,344.11 C615.51,344.32 614.65,346.41 613.77,348.75 C608.38,362.98 596.34,379.52 583.73,390.00 C580.10,393.02 577.09,395.91 577.06,396.40 C577.03,396.90 579.69,401.50 582.98,406.63 C589.89,417.40 596.10,429.36 598.45,436.41 C599.35,439.11 600.62,445.75 601.26,451.16 ZM 596.07 578.40 C593.08,579.28 589.59,580.00 588.30,580.00 C583.07,580.00 579.25,566.79 580.37,552.62 C582.84,521.40 601.06,499.67 634.88,487.58 C641.60,485.18 642.47,485.08 644.55,486.44 C648.44,488.99 649.31,493.89 648.72,509.91 C647.92,531.44 644.28,542.55 634.01,554.89 C626.47,563.96 609.55,574.44 596.07,578.40 ZM 461.79 579.00 C460.06,582.25 455.79,582.55 446.50,580.08 C438.09,577.84 423.40,572.02 417.66,568.64 C410.85,564.64 399.37,552.01 396.02,544.85 C391.83,535.90 388.91,524.03 388.28,513.38 C387.78,504.87 387.89,504.11 390.00,502.00 C392.03,499.97 392.92,499.80 398.60,500.33 C402.08,500.65 408.43,502.12 412.71,503.59 C438.53,512.45 454.54,527.65 459.99,548.50 C462.67,558.72 463.66,575.50 461.79,579.00 ZM 518.77 540.54 C509.01,545.22 508.60,545.15 505.03,538.29 C501.68,531.84 500.07,523.52 500.04,512.36 C499.97,494.37 505.35,481.76 519.00,467.94 C527.97,458.85 543.41,448.00 547.38,448.00 C553.46,448.00 557.03,457.83 557.73,476.50 C558.35,492.99 557.27,498.54 550.96,511.08 C544.38,524.17 534.98,532.77 518.77,540.54 ZM 351.91 353.72 C352.79,354.39 355.21,354.95 357.30,354.97 C362.38,355.01 366.00,351.49 366.00,346.50 C366.00,338.48 356.78,335.06 350.92,340.92 C346.92,344.93 347.33,350.20 351.91,353.72 ZM 382.09 373.60 C383.65,375.49 386.96,375.04 388.39,372.75 C390.00,370.18 387.96,367.50 384.39,367.50 C382.13,367.50 381.43,368.01 381.17,369.81 C380.99,371.07 381.40,372.78 382.09,373.60 Z" fill="rgb(55,69,37)"/>
<path d="M 632.99 381.86 C636.41,372.48 641.00,352.92 641.00,347.70 C641.00,343.61 640.45,342.97 630.14,335.06 C613.55,322.35 605.22,310.32 597.87,288.50 C594.66,278.97 594.50,277.82 594.50,264.00 C594.50,246.90 596.06,240.62 604.25,224.62 C608.28,216.76 611.17,212.81 618.39,205.25 C633.26,189.70 644.70,182.22 663.70,175.64 C678.18,170.62 687.47,168.90 703.61,168.27 C742.06,166.76 774.89,178.66 798.98,202.85 C809.46,213.38 815.72,223.26 820.31,236.54 C830.15,264.97 826.99,287.99 809.55,315.00 C799.00,331.34 776.20,347.41 752.65,355.12 C734.13,361.18 709.02,363.59 692.00,360.95 C691.32,360.84 690.66,360.74 690.03,360.64 C680.26,359.12 676.93,358.60 674.40,359.78 C672.93,360.47 671.72,361.73 669.68,363.69 C664.27,368.91 655.07,376.03 647.78,380.65 C641.01,384.95 631.89,390.00 630.91,390.00 C630.42,390.00 631.36,386.34 632.99,381.86 ZM 420.00 475.11 C413.90,473.13 397.73,465.15 388.56,459.60 C381.69,455.44 379.19,455.23 369.50,458.00 C346.12,464.69 318.46,462.23 296.08,451.46 C281.07,444.23 272.57,437.55 265.79,427.64 C251.92,407.38 250.66,388.15 261.96,369.05 C266.32,361.69 269.22,358.38 277.72,351.12 C283.34,346.32 286.00,344.76 289.72,344.05 C300.18,342.07 307.43,338.82 315.36,332.55 C319.03,329.66 319.66,329.51 327.68,329.65 C332.32,329.73 337.72,330.10 339.68,330.47 L 343.23 331.13 L 341.01 333.21 C333.48,340.22 334.72,354.50 343.48,361.72 C350.18,367.24 356.80,368.02 367.54,364.54 C369.41,363.93 369.57,364.30 369.57,369.22 C369.57,378.88 375.62,385.00 385.15,385.00 C399.52,384.98 404.14,366.60 391.90,358.15 C389.09,356.21 387.64,355.90 383.50,356.32 C380.75,356.60 377.69,357.15 376.70,357.54 C375.12,358.16 375.00,357.89 375.70,355.38 C377.06,350.48 376.51,340.75 374.66,337.25 L 372.95 334.00 L 375.72 334.03 C379.61,334.08 391.75,339.03 400.29,344.06 C409.58,349.53 423.41,363.41 427.74,371.61 C432.55,380.72 434.36,388.93 433.69,398.54 C432.79,411.43 427.93,421.87 416.91,434.60 C413.04,439.08 412.81,439.68 413.25,444.26 C413.58,447.66 415.75,453.16 420.37,462.32 C424.03,469.57 427.02,475.84 427.01,476.25 C426.99,477.27 426.34,477.16 420.00,475.11 Z" fill="rgb(72,153,188)"/>
<path d="M 495.35 334.75 C488.55,327.78 482.06,319.89 478.26,314.00 C472.51,305.06 470.62,301.85 467.84,300.56 C466.03,299.73 463.85,299.72 460.00,299.48 C442.71,298.42 439.21,297.92 426.00,294.59 C410.39,290.67 398.64,286.07 398.19,283.73 C398.01,282.84 399.49,279.72 401.46,276.80 C406.07,270.00 409.00,260.51 409.00,252.42 C409.00,239.43 401.99,225.66 391.89,218.82 C386.33,215.05 386.27,214.96 385.75,209.20 C383.80,187.70 359.54,170.09 337.22,173.98 C333.76,174.58 330.49,174.80 329.96,174.48 C328.47,173.55 328.83,159.86 330.54,152.47 C334.21,136.65 340.04,126.06 351.93,113.64 C366.43,98.48 387.44,88.29 412.31,84.35 C426.55,82.10 456.06,82.93 468.00,85.92 C495.06,92.69 515.32,103.63 532.86,120.93 C554.39,142.16 566.01,169.12 566.00,197.84 C565.99,218.96 561.73,234.91 551.71,251.42 C543.17,265.48 532.69,275.13 513.62,286.50 C504.71,291.82 503.47,292.90 502.76,296.00 C501.11,303.13 503.35,326.31 507.42,344.25 C507.63,345.21 507.48,346.00 507.07,346.00 C506.66,346.00 501.39,340.94 495.35,334.75 ZM 339.00 552.11 C330.07,548.78 324.69,546.09 316.14,540.69 C309.88,536.74 309.73,536.70 307.14,538.40 C301.16,542.30 287.99,548.12 280.50,550.18 C268.73,553.41 244.91,553.40 233.52,550.15 C198.20,540.09 176.99,515.60 176.67,484.50 C176.37,454.38 194.75,427.44 221.81,418.33 L 230.23 415.50 L 229.66 408.63 C229.57,407.53 229.47,406.47 229.36,405.51 C229.56,406.55 229.75,407.72 229.93,408.94 C233.58,433.87 254.16,459.87 281.00,473.46 C292.26,479.16 307.32,483.66 324.00,486.33 C325.38,486.55 331.11,486.79 336.75,486.86 L 347.00 487.00 L 347.00 477.00 L 339.25 477.00 C337.01,477.00 334.74,476.91 332.45,476.74 C335.49,476.91 338.40,476.88 341.12,476.63 L 348.00 475.99 L 348.00 480.91 C348.00,490.40 343.25,504.42 336.91,513.63 C334.56,517.05 333.72,519.33 333.83,522.04 C334.01,526.50 338.25,536.25 344.46,546.49 C346.96,550.60 349.00,554.20 349.00,554.48 C349.00,555.49 346.42,554.87 339.00,552.11 ZM 847.66 447.93 C849.58,447.35 855.00,443.00 855.00,441.92 C855.00,439.88 842.65,424.87 835.41,418.11 C820.06,403.77 806.12,396.52 783.00,390.85 C775.52,389.01 745.27,389.02 738.50,390.86 C730.97,392.90 720.19,396.95 713.75,400.16 C710.59,401.74 708.00,402.55 708.00,401.97 C708.00,401.39 708.84,399.25 709.86,397.21 C710.88,395.17 712.00,392.33 712.34,390.89 C712.94,388.39 713.32,388.26 722.11,387.60 C737.82,386.41 752.60,382.96 769.28,376.59 C794.18,367.07 818.74,348.30 831.32,329.18 C836.41,321.45 845.00,304.57 845.00,302.31 C845.00,301.56 843.51,300.19 841.77,299.03 C847.54,301.74 856.05,307.92 863.50,315.43 C877.63,329.67 884.32,344.13 886.99,366.17 C889.45,386.51 883.13,411.49 871.74,426.50 C866.03,434.02 851.46,446.91 847.66,447.93 ZM 313.33 473.53 C300.24,470.15 287.08,464.36 275.00,456.54 C272.14,454.69 269.27,452.48 266.49,450.02 C278.51,460.34 296.32,469.03 313.33,473.53 ZM 835.97 297.71 C835.66,298.08 835.40,298.56 835.26,299.10 C833.97,304.06 826.48,317.90 820.97,325.54 C826.70,317.61 835.00,302.06 835.00,299.27 C835.00,298.45 835.34,297.94 835.97,297.71 ZM 228.22 401.14 C226.40,400.94 219.60,403.26 212.65,406.37 C219.33,403.36 225.97,401.00 228.07,401.00 C228.11,401.00 228.16,401.05 228.22,401.14 ZM 243.29 416.82 C245.35,422.70 248.35,428.48 252.23,434.05 C249.22,429.78 246.72,425.41 244.97,421.22 C244.34,419.71 243.78,418.25 243.29,416.82 ZM 240.24 401.32 C240.06,398.26 240.07,394.96 240.24,391.26 C240.08,394.69 240.09,398.21 240.24,401.32 ZM 847.24 448.00 C846.71,448.00 844.67,445.56 842.69,442.59 C844.64,445.53 846.69,447.95 847.28,448.00 C847.26,448.00 847.25,448.00 847.24,448.00 Z" fill="rgb(120,158,81)"/>
<path d="M 694.00 594.05 C694.00,592.98 695.80,585.45 697.99,577.30 C700.19,569.16 701.99,561.77 701.99,560.88 C702.00,559.99 699.50,556.17 696.45,552.38 C689.58,543.87 682.70,530.07 680.04,519.50 C677.52,509.48 677.32,492.24 679.58,481.21 C683.98,459.80 697.57,440.11 716.68,427.42 C723.51,422.89 735.03,418.37 744.99,416.30 C755.63,414.10 775.94,414.95 785.50,418.00 C816.63,427.92 837.88,452.48 843.40,484.93 C845.47,497.09 845.42,501.79 843.09,513.71 C839.51,532.12 832.46,546.16 820.72,558.30 C809.40,570.00 791.96,579.38 776.55,582.07 C767.35,583.67 750.50,582.71 741.26,580.07 C737.28,578.93 732.92,578.00 731.58,578.00 C730.23,578.00 721.35,582.05 711.83,587.00 C702.32,591.95 694.42,596.00 694.27,596.00 C694.12,596.00 694.00,595.12 694.00,594.05 ZM 696.42 142.36 C693.72,142.30 675.96,145.21 668.12,147.05 C663.52,148.14 657.22,150.09 654.12,151.39 C635.85,159.10 631.64,161.16 623.89,166.22 C619.17,169.29 610.54,176.35 604.70,181.90 C598.86,187.46 593.64,192.00 593.10,192.00 C592.56,192.00 591.86,189.86 591.53,187.25 C587.56,155.15 578.03,133.12 558.18,110.15 C554.51,105.90 548.80,100.03 545.50,97.10 C542.20,94.18 538.69,90.86 537.71,89.73 L 536.09 87.88 C540.88,85.02 546.78,81.96 551.50,80.08 C563.68,75.22 570.47,73.49 583.50,71.96 C630.50,66.41 676.05,88.75 691.01,124.67 C692.99,129.43 695.08,136.52 696.42,142.36 ZM 228.22 401.14 C228.16,401.05 228.11,401.00 228.07,401.00 C225.97,401.00 219.33,403.36 212.65,406.37 C210.66,407.26 208.65,408.21 206.75,409.19 C195.21,415.11 186.79,422.31 178.04,433.75 C174.57,438.29 171.31,442.00 170.80,442.00 C169.13,442.00 161.60,436.29 157.41,431.84 C147.52,421.34 142.32,413.03 139.04,402.50 C130.88,376.31 137.56,347.71 156.26,328.80 C164.36,320.62 171.82,315.76 182.70,311.59 C196.48,306.31 197.37,306.25 199.91,310.35 C206.15,320.44 222.19,328.95 235.03,328.99 C237.52,328.99 242.02,328.36 245.02,327.58 L 250.48 326.17 L 255.73 331.13 C258.62,333.86 262.58,336.76 264.55,337.58 L 265.97 338.18 L 265.45 337.98 C263.96,337.41 261.49,336.06 259.97,334.98 C257.36,333.12 254.89,332.22 256.32,333.65 C256.68,334.01 253.94,337.51 250.23,341.42 C245.73,346.19 241.62,352.01 237.82,359.02 C229.50,374.37 226.98,386.26 228.90,402.25 C228.79,401.71 228.70,401.37 228.62,401.29 C228.55,401.21 228.41,401.16 228.22,401.14 ZM 657.36 161.94 C622.20,174.60 594.54,201.58 583.38,234.36 C594.19,202.63 620.03,176.58 654.00,163.18 C655.03,162.77 656.16,162.36 657.36,161.94 ZM 697.47 152.77 L 697.27 148.09 C697.23,147.28 697.19,146.51 697.15,145.80 C697.76,149.04 698.02,151.51 697.70,152.34 C697.64,152.49 697.56,152.64 697.47,152.77 ZM 229.97 409.22 C231.31,416.26 233.39,422.76 236.27,428.88 C233.13,422.42 230.96,415.78 229.97,409.22 ZM 247.49 446.36 C247.79,446.72 248.10,447.08 248.41,447.44 C260.21,461.22 273.34,470.84 290.04,477.47 C286.82,476.21 283.79,474.87 281.00,473.46 C267.94,466.85 256.36,457.29 247.49,446.36 ZM 692.07 154.03 L 696.28 153.60 C695.51,153.88 694.43,154.00 692.97,154.00 C692.70,154.00 692.40,154.01 692.07,154.03 ZM 531.21 91.01 C529.19,92.49 527.53,94.00 527.40,94.50 C527.28,94.97 529.59,97.24 532.78,99.84 C529.59,97.24 527.27,94.97 527.37,94.50 C527.53,93.83 528.99,92.56 531.21,91.01 ZM 679.13 156.05 C681.20,155.62 683.20,155.24 685.07,154.93 C683.22,155.24 681.21,155.62 679.13,156.05 Z" fill="rgb(246,192,8)"/>
<path d="M 0.00 512.00 L 0.00 0.00 L 512.00 0.00 L 1024.00 0.00 L 1024.00 512.00 L 1024.00 1024.00 L 512.00 1024.00 L 0.00 1024.00 L 0.00 512.00 ZM 447.70 967.50 C448.88,966.67 450.57,963.81 451.45,961.14 C454.60,951.67 463.19,940.56 471.50,935.23 C473.69,933.82 480.44,930.00 486.50,926.75 C492.55,923.50 500.75,918.37 504.72,915.34 C511.14,910.45 513.86,907.69 523.17,896.64 L 525.58 893.78 L 529.26 899.74 C534.22,907.77 544.90,917.55 554.56,922.90 C575.72,934.60 582.65,940.81 588.56,953.33 C591.38,959.31 593.54,961.38 598.13,962.51 C600.19,963.02 601.53,962.47 604.38,959.97 C609.50,955.48 609.37,950.98 603.82,939.87 C598.52,929.23 590.65,921.29 578.70,914.50 C559.82,903.76 557.59,902.37 553.32,898.62 C545.29,891.57 539.73,876.51 538.50,858.50 C537.21,839.60 535.80,829.64 533.03,819.74 C527.70,800.72 523.96,785.32 522.49,776.39 C516.66,740.80 527.18,704.64 554.82,665.25 C558.39,660.16 561.64,656.00 562.03,656.00 C562.43,656.00 562.12,659.04 561.35,662.75 C558.25,677.63 558.60,721.65 562.08,753.50 C567.06,799.11 570.89,818.66 577.91,834.29 C587.94,856.65 607.20,874.01 632.56,883.56 C635.93,884.83 645.17,887.73 653.09,890.02 C668.87,894.57 684.71,900.71 692.50,905.29 C697.98,908.52 704.69,913.81 712.69,921.20 C718.97,927.01 723.42,927.67 727.67,923.42 C729.85,921.24 730.17,920.20 729.76,916.53 C729.47,913.97 728.17,910.77 726.55,908.65 C723.77,905.00 712.82,895.67 705.56,890.75 L 701.50 888.01 L 706.18 888.00 C708.75,888.00 715.37,888.89 720.90,889.98 C743.11,894.36 758.19,901.75 772.87,915.45 C781.39,923.40 783.80,925.00 787.30,925.00 C791.28,925.00 796.00,920.13 796.00,916.03 C796.00,911.55 793.81,907.92 787.96,902.65 C759.96,877.48 733.14,869.07 672.53,866.47 C651.14,865.55 633.19,861.36 621.38,854.52 C618.70,852.96 613.12,848.27 609.00,844.10 C596.10,831.03 590.58,816.86 585.59,784.00 C582.08,760.85 580.03,736.39 579.31,708.95 C578.67,684.30 579.30,676.18 583.07,661.00 C587.26,644.07 598.18,622.96 608.34,612.14 C614.59,605.48 627.75,596.70 641.50,590.02 C657.73,582.14 681.67,572.34 682.56,573.22 C683.10,573.77 679.10,588.23 673.83,604.75 C670.76,614.39 673.13,620.00 680.28,620.00 C683.23,620.00 712.08,605.66 724.48,598.03 L 731.46 593.74 L 738.48 595.37 C764.00,601.27 788.25,597.98 810.36,585.62 C818.57,581.03 833.72,567.50 839.91,559.23 C859.82,532.65 865.01,498.80 854.47,464.32 C853.92,462.51 854.47,461.80 857.75,460.13 C869.62,454.07 883.90,439.00 891.72,424.27 C906.98,395.51 906.79,353.99 891.28,326.00 C886.37,317.14 877.83,305.91 872.18,300.88 C865.61,295.03 854.42,287.84 846.58,284.42 L 839.92 281.52 L 840.71 276.01 C842.57,263.04 840.65,245.91 835.79,232.08 C827.35,208.10 811.08,188.65 786.99,173.74 C768.08,162.04 749.13,156.16 721.00,153.27 L 713.50 152.50 L 712.73 146.50 C710.48,128.84 704.69,113.33 695.61,100.60 C679.61,78.17 649.45,61.54 616.68,57.07 C606.87,55.73 586.72,55.72 577.50,57.05 C556.90,60.02 534.68,68.80 518.88,80.22 L 511.26 85.72 L 503.50 81.94 C486.25,73.52 466.87,69.25 442.00,68.38 C400.97,66.94 366.99,78.01 343.02,100.62 C329.57,113.31 320.87,128.65 316.20,147.88 C314.79,153.72 313.58,158.59 313.52,158.71 C313.46,158.82 310.58,158.04 307.12,156.96 C296.14,153.54 280.38,154.64 271.03,159.48 C269.12,160.47 265.04,163.68 261.96,166.62 C256.59,171.74 256.21,171.92 252.94,170.98 C247.66,169.47 234.00,169.81 227.93,171.61 C220.63,173.77 215.43,176.95 209.81,182.70 C205.15,187.47 199.01,198.23 198.99,201.69 C198.95,206.05 197.68,207.79 192.96,209.92 C179.14,216.17 169.00,232.55 169.00,248.60 C169.00,255.50 172.25,265.69 176.35,271.66 C179.31,275.96 188.08,284.14 190.80,285.13 C191.36,285.33 191.97,287.04 192.16,288.93 L 192.50 292.36 L 182.00 295.98 C156.13,304.89 140.62,318.05 129.49,340.50 C122.58,354.45 120.69,362.82 120.69,379.50 C120.69,396.46 122.57,404.62 129.90,419.50 C136.15,432.16 145.07,442.75 156.51,451.07 C163.51,456.15 165.04,457.72 164.64,459.42 C162.39,468.89 161.81,475.36 162.20,486.70 C162.58,497.70 163.07,500.72 165.68,508.19 C178.26,544.14 215.50,568.22 258.50,568.23 C273.51,568.24 285.19,565.72 299.31,559.44 C303.82,557.44 308.41,555.59 309.52,555.33 C310.73,555.04 314.23,556.43 318.31,558.82 C325.95,563.28 342.54,569.70 364.00,576.49 C379.88,581.52 395.04,588.34 405.80,595.30 C427.74,609.50 444.38,634.67 450.10,662.35 C453.84,680.42 452.75,717.54 447.00,768.50 C441.68,815.59 432.51,838.00 413.00,851.58 C400.42,860.33 386.79,863.93 358.50,865.98 C322.12,868.61 306.82,871.09 287.36,877.49 C270.57,883.02 257.30,890.23 246.44,899.76 C234.15,910.53 231.64,915.74 236.06,921.35 C240.95,927.57 247.65,926.14 256.50,916.99 C272.08,900.88 296.51,890.33 322.76,888.40 L 330.50 887.83 L 326.33 890.31 C314.61,897.28 304.00,906.16 301.41,911.17 C299.78,914.32 299.57,919.33 300.96,921.93 C302.28,924.39 307.42,926.36 310.50,925.59 C311.89,925.24 316.65,921.63 321.06,917.57 C336.05,903.76 357.68,894.97 395.00,887.52 C416.41,883.24 434.10,877.05 447.30,869.20 C457.90,862.90 468.96,851.33 473.57,841.72 C477.41,833.71 477.64,832.13 475.54,828.07 C473.87,824.85 472.21,824.00 467.59,824.00 C463.75,824.00 461.62,826.05 456.67,834.50 C453.29,840.29 446.00,848.42 446.00,846.41 C446.00,845.88 447.53,842.52 449.41,838.97 C458.58,821.56 464.67,795.02 466.97,762.50 C468.92,734.94 471.05,714.53 472.94,705.31 C474.88,695.81 480.05,682.00 490.26,659.00 C497.05,643.69 502.02,629.63 504.65,618.27 C507.21,607.25 507.21,581.58 504.66,570.50 C502.79,562.37 497.13,541.51 494.37,532.60 C488.40,513.26 490.03,485.59 498.35,464.98 C506.34,445.20 521.76,429.81 551.82,411.61 C556.94,408.50 561.51,406.20 561.97,406.48 C563.17,407.22 573.17,424.26 577.24,432.50 C583.22,444.61 585.04,456.37 582.66,467.63 C580.94,475.78 578.32,481.33 570.39,493.62 C554.88,517.67 545.69,541.92 535.99,584.38 C528.98,615.04 522.26,631.65 504.16,663.00 C483.08,699.49 477.09,716.50 474.84,746.21 C473.43,764.93 474.33,776.51 479.06,800.50 C483.35,822.28 483.89,834.04 481.11,845.05 C474.34,871.88 461.01,882.63 422.66,892.14 C388.43,900.64 376.80,905.94 364.40,918.68 C352.24,931.19 346.38,943.96 350.38,949.24 C351.11,950.20 353.38,951.68 355.43,952.54 C358.89,953.98 359.39,953.96 362.33,952.25 C364.26,951.13 367.07,947.68 369.50,943.45 C379.18,926.62 393.31,918.06 423.00,911.02 C451.80,904.18 461.13,900.44 473.60,890.67 C477.50,887.62 483.21,881.84 486.29,877.81 C502.39,856.76 505.58,833.89 497.67,796.30 C491.53,767.12 491.06,752.42 495.59,730.50 C499.20,712.99 504.60,700.81 522.28,670.27 C528.72,659.14 535.82,645.97 538.06,640.99 C543.24,629.49 549.78,609.55 554.47,591.00 C561.86,561.70 564.18,553.75 569.06,540.84 C579.64,512.88 592.73,493.13 609.00,480.57 C612.03,478.23 623.28,470.32 634.00,462.99 C663.57,442.77 669.65,437.46 684.27,419.08 C690.37,411.40 700.72,391.37 702.96,382.90 L 704.18 378.30 L 715.84 377.69 C737.60,376.57 753.84,372.52 772.56,363.56 C794.85,352.90 809.56,341.35 820.97,325.54 C826.48,317.90 833.97,304.06 835.26,299.10 C835.57,297.94 836.42,297.00 837.16,297.00 C839.32,297.01 845.00,300.85 845.00,302.31 C845.00,304.57 836.41,321.45 831.32,329.18 C818.74,348.30 794.18,367.07 769.28,376.59 C752.60,382.96 737.82,386.41 722.11,387.60 C713.32,388.26 712.94,388.39 712.34,390.89 C712.00,392.33 710.88,395.17 709.86,397.21 C708.84,399.25 708.00,401.39 708.00,401.97 C708.00,402.55 710.59,401.74 713.75,400.16 C720.19,396.95 730.97,392.90 738.50,390.86 C745.27,389.02 775.52,389.01 783.00,390.85 C806.12,396.52 820.06,403.77 835.41,418.11 C842.65,424.87 855.00,439.88 855.00,441.92 C855.00,443.08 848.76,448.00 847.30,448.00 C846.74,448.00 844.67,445.56 842.69,442.59 C830.77,424.64 810.77,409.89 789.50,403.36 C781.08,400.77 779.30,400.59 762.00,400.55 C745.57,400.51 742.60,400.77 735.50,402.82 C708.11,410.73 683.22,431.92 671.48,457.34 C666.51,468.09 664.07,478.00 663.00,491.74 C661.47,511.37 664.23,526.28 672.65,543.88 C675.12,549.04 676.77,553.58 676.32,553.97 C675.87,554.36 671.67,555.94 667.00,557.49 C626.24,571.00 593.69,591.32 566.86,619.99 C533.93,655.17 512.32,693.50 504.39,730.75 C499.83,752.20 501.62,778.53 509.48,805.70 C515.24,825.64 516.25,831.47 516.35,845.50 C516.46,860.80 515.04,867.31 508.83,880.00 C505.86,886.06 502.92,890.23 498.58,894.53 C492.64,900.42 490.08,902.11 467.50,915.10 C460.83,918.93 454.33,923.60 450.98,926.96 C439.72,938.27 431.10,954.40 432.46,961.65 C433.64,967.92 442.33,971.26 447.70,967.50 ZM 676.69 950.83 C682.63,945.24 677.33,930.89 664.04,916.62 C655.86,907.83 647.20,902.77 624.75,893.65 C598.56,883.01 589.14,876.34 579.29,861.50 C572.79,851.70 565.84,835.19 562.55,821.67 C556.19,795.60 554.58,777.89 555.55,745.00 C556.58,710.11 556.57,708.78 555.05,705.12 C553.64,701.72 551.21,700.66 545.99,701.18 C538.24,701.94 536.86,710.04 536.63,756.00 C536.53,777.77 536.88,786.21 538.32,796.50 C542.04,822.96 546.94,839.96 556.20,858.50 C570.00,886.13 583.63,897.48 619.85,911.47 C640.02,919.27 651.34,928.18 660.07,943.12 C662.25,946.86 665.03,950.61 666.24,951.46 C669.38,953.65 673.97,953.38 676.69,950.83 ZM 596.07 578.40 C609.55,574.44 626.47,563.96 634.01,554.89 C644.28,542.55 647.92,531.44 648.72,509.91 C649.31,493.89 648.44,488.99 644.55,486.44 C642.47,485.08 641.60,485.18 634.88,487.58 C601.06,499.67 582.84,521.40 580.37,552.62 C579.25,566.79 583.07,580.00 588.30,580.00 C589.59,580.00 593.08,579.28 596.07,578.40 ZM 518.77 540.54 C534.98,532.77 544.38,524.17 550.96,511.08 C557.27,498.54 558.35,492.99 557.73,476.50 C557.03,457.83 553.46,448.00 547.38,448.00 C543.41,448.00 527.97,458.85 519.00,467.94 C505.35,481.76 499.97,494.37 500.04,512.36 C500.07,523.52 501.68,531.84 505.03,538.29 C508.60,545.15 509.01,545.22 518.77,540.54 ZM 467.12 646.25 C459.02,618.67 441.89,595.31 418.72,580.27 C414.99,577.84 403.74,571.90 393.72,567.07 C373.49,557.31 367.23,552.88 360.70,543.71 C355.82,536.87 350.00,525.90 350.00,523.56 C350.00,522.74 351.53,519.24 353.40,515.78 C359.28,504.89 363.00,491.63 363.00,481.53 C363.00,476.27 363.07,476.14 366.25,475.50 C368.04,475.13 371.77,474.15 374.53,473.30 L 379.57 471.77 L 389.66 477.41 C400.45,483.43 408.32,486.95 427.66,494.40 C440.99,499.53 445.35,502.47 453.03,511.50 C470.31,531.81 481.40,553.45 485.94,575.72 C489.56,593.47 488.47,609.07 482.36,626.86 C479.33,635.68 471.03,654.00 470.06,654.00 C469.70,654.00 468.38,650.51 467.12,646.25 ZM 461.79 579.00 C463.66,575.50 462.67,558.72 459.99,548.50 C454.54,527.65 438.53,512.45 412.71,503.59 C408.43,502.12 402.08,500.65 398.60,500.33 C392.92,499.80 392.03,499.97 390.00,502.00 C387.89,504.11 387.78,504.87 388.28,513.38 C388.91,524.03 391.83,535.90 396.02,544.85 C399.37,552.01 410.85,564.64 417.66,568.64 C423.40,572.02 438.09,577.84 446.50,580.08 C455.79,582.55 460.06,582.25 461.79,579.00 ZM 459.65 490.12 C447.60,477.22 441.19,468.11 434.39,454.22 L 429.83 444.92 L 436.25 435.21 C439.77,429.87 443.40,423.70 444.30,421.50 C449.15,409.67 450.43,392.39 447.37,380.06 C441.99,358.39 422.77,337.00 398.98,326.19 C391.45,322.77 377.75,318.30 371.97,317.38 C369.79,317.03 368.00,316.63 368.00,316.49 C368.00,316.36 369.57,313.64 371.49,310.45 C373.40,307.27 375.23,303.05 375.54,301.08 C376.89,292.57 380.36,292.02 392.21,298.43 C405.89,305.82 428.97,312.57 446.29,314.23 L 449.09 314.50 L 449.44 326.50 C450.15,350.51 454.26,367.13 465.02,389.59 C468.43,396.69 472.79,407.00 474.72,412.50 C477.76,421.16 478.29,424.11 478.73,434.50 C479.17,445.23 478.84,448.63 475.61,466.58 C473.63,477.62 471.96,489.09 471.90,492.08 C471.70,503.00 471.67,503.00 459.65,490.12 ZM 324.00 486.33 C289.39,480.80 267.21,469.39 248.41,447.44 C237.98,435.27 231.91,422.02 229.42,406.02 C226.63,388.07 228.86,375.56 237.82,359.02 C241.62,352.01 245.73,346.19 250.23,341.42 C253.94,337.51 256.68,334.01 256.32,333.65 C254.89,332.22 257.36,333.12 259.97,334.98 C261.49,336.06 263.96,337.41 265.45,337.98 L 268.17 339.01 L 260.33 347.41 C246.25,362.49 241.04,373.87 240.24,391.26 C239.67,403.67 240.90,411.45 244.97,421.22 C250.32,434.02 262.68,448.56 275.00,456.54 C295.18,469.60 318.36,476.99 339.25,477.00 L 347.00 477.00 L 347.00 482.00 L 347.00 487.00 L 336.75 486.86 C331.11,486.79 325.38,486.55 324.00,486.33 ZM 601.26 451.16 C600.62,445.75 599.35,439.11 598.45,436.41 C596.10,429.36 589.89,417.40 582.98,406.63 C579.69,401.50 577.03,396.90 577.06,396.40 C577.09,395.91 580.10,393.02 583.73,390.00 C596.34,379.52 608.38,362.98 613.77,348.75 C614.65,346.41 615.51,344.32 615.66,344.11 C615.82,343.89 618.10,345.44 620.72,347.54 C623.35,349.65 625.65,351.48 625.84,351.61 C626.48,352.06 623.86,363.55 621.29,371.50 C619.88,375.90 616.24,384.45 613.22,390.50 C605.97,405.01 605.64,406.27 608.24,409.58 C610.04,411.86 610.88,412.16 614.41,411.74 C620.38,411.05 641.38,401.94 652.41,395.27 C657.66,392.10 665.76,386.46 670.41,382.75 C677.77,376.87 679.39,376.00 683.00,376.00 C687.95,376.00 687.94,376.17 681.78,388.82 C676.58,399.49 667.46,412.28 659.10,420.64 C651.99,427.75 637.66,438.90 629.29,443.83 C626.43,445.52 619.36,450.07 613.58,453.95 C607.80,457.83 602.93,461.00 602.75,461.00 C602.58,461.00 601.91,456.57 601.26,451.16 ZM 496.56 422.04 C494.32,409.87 492.48,404.87 483.06,385.38 C471.82,362.13 466.96,345.74 467.03,331.29 L 467.07 324.50 L 469.09 327.00 C478.75,338.97 484.15,344.76 491.24,350.77 C500.63,358.73 522.40,373.00 525.16,373.00 C527.82,373.00 531.00,369.42 531.00,366.42 C531.00,365.00 529.61,360.38 527.91,356.17 C521.52,340.31 518.55,328.03 517.45,312.93 L 516.75 303.35 L 525.13 298.01 C548.74,282.95 561.36,269.46 570.67,249.35 C586.16,215.88 585.00,175.54 567.57,141.13 C560.96,128.10 546.18,110.25 534.48,101.18 C530.44,98.06 527.26,95.05 527.40,94.50 C527.54,93.95 529.52,92.19 531.79,90.59 L 535.92 87.68 L 537.71 89.73 C538.69,90.86 542.20,94.18 545.50,97.10 C548.80,100.03 554.51,105.90 558.18,110.15 C578.03,133.12 587.56,155.15 591.53,187.25 C591.86,189.86 592.56,192.00 593.10,192.00 C593.64,192.00 598.86,187.46 604.70,181.90 C610.54,176.35 619.17,169.29 623.89,166.22 C631.64,161.16 635.85,159.10 654.12,151.39 C657.22,150.09 663.52,148.14 668.12,147.05 C676.50,145.08 696.22,141.89 696.76,142.42 C696.91,142.58 697.14,145.13 697.27,148.09 L 697.50 153.48 L 690.24 154.21 C680.75,155.17 663.43,159.46 654.00,163.18 C620.03,176.58 594.19,202.63 583.38,234.36 C580.05,244.14 578.65,256.52 579.29,270.50 C580.16,289.53 585.40,304.95 596.72,321.79 L 602.37 330.18 L 601.15 334.84 C599.18,342.39 592.72,354.95 586.69,362.94 C580.50,371.16 573.20,377.60 571.73,376.13 C570.57,374.97 572.13,367.05 576.47,352.00 C583.55,327.49 583.76,322.03 578.04,310.20 C575.12,304.17 573.57,302.00 572.16,302.00 C569.63,302.00 558.32,314.06 553.67,321.73 C547.31,332.19 544.86,342.05 544.86,357.15 C544.86,367.99 546.29,375.23 550.12,383.76 C551.73,387.35 552.92,390.39 552.77,390.52 C552.62,390.65 546.88,394.25 540.00,398.52 C522.94,409.12 519.01,412.02 507.86,422.21 L 498.21 431.02 L 496.56 422.04 ZM 382.09 373.60 C381.40,372.78 380.99,371.07 381.17,369.81 C381.43,368.01 382.13,367.50 384.39,367.50 C387.96,367.50 390.00,370.18 388.39,372.75 C386.96,375.04 383.65,375.49 382.09,373.60 ZM 351.91 353.72 C347.33,350.20 346.92,344.93 350.92,340.92 C356.78,335.06 366.00,338.48 366.00,346.50 C366.00,351.49 362.38,355.01 357.30,354.97 C355.21,354.95 352.79,354.39 351.91,353.72 ZM 281.34 328.97 C272.47,327.19 263.67,321.28 258.95,313.92 C257.21,311.22 255.05,309.01 254.15,309.02 C253.24,309.03 250.48,309.99 248.00,311.14 C245.36,312.37 240.54,313.45 236.36,313.74 C230.23,314.18 228.46,313.90 223.82,311.77 C211.78,306.26 207.06,299.14 206.09,285.01 L 205.50 276.52 L 201.00 274.38 C198.52,273.21 194.17,269.77 191.32,266.75 C182.40,257.30 180.86,246.64 186.74,235.10 C190.21,228.30 194.49,224.84 204.55,220.70 L 212.50 217.42 L 213.04 209.96 C214.23,193.55 224.33,184.00 240.49,184.00 C246.59,184.00 249.03,184.49 253.00,186.50 C255.71,187.88 258.44,189.00 259.07,189.00 C259.69,189.00 263.87,185.24 268.35,180.64 C277.77,170.97 282.04,168.99 293.43,169.01 C298.79,169.02 301.75,169.60 305.69,171.44 C312.06,174.40 319.05,180.70 322.50,186.59 C325.37,191.49 326.74,191.86 332.63,189.35 C337.71,187.18 350.20,187.14 355.19,189.27 C360.83,191.68 367.50,198.42 370.00,204.23 C371.47,207.64 372.31,211.78 372.44,216.29 L 372.64 223.16 L 378.06 226.13 C385.30,230.08 388.53,233.34 391.78,239.97 C394.04,244.56 394.49,246.77 394.43,253.00 C394.34,261.76 392.75,266.05 387.43,271.94 C382.80,277.07 377.08,280.49 370.50,282.07 C367.75,282.73 365.14,283.60 364.69,283.99 C364.25,284.39 363.50,287.44 363.03,290.77 C361.92,298.66 359.53,303.54 354.28,308.65 C346.87,315.87 337.28,317.71 327.00,313.89 C317.35,310.30 316.59,310.34 313.37,314.57 C304.56,326.12 293.02,331.31 281.34,328.97 Z" fill="rgb(249,251,237)"/>
</g>
</svg>